<?xml version="1.0" encoding="UTF-8" standalone="no"?>
<!DOCTYPE svg PUBLIC "-//W3C//DTD SVG 20010904//EN"
              "http://www.w3.org/TR/2001/REC-SVG-20010904/DTD/svg10.dtd">

<svg xmlns="http://www.w3.org/2000/svg"
     width="6.66667in" height="6.66667in"
     viewBox="0 0 2000 2000">
  <path id="Selection"
        fill="white" stroke="none" stroke-width="1"
        d="M 666.00,39.71
           C 672.15,38.39 686.94,39.00 694.00,39.00
             694.00,39.00 747.00,39.00 747.00,39.00
             755.80,39.01 752.18,39.64 758.09,40.74
             758.09,40.74 768.00,41.83 768.00,41.83
             779.30,42.93 790.10,45.03 801.09,47.82
             801.09,47.82 823.83,53.07 823.83,53.07
             823.83,53.07 859.09,65.20 859.09,65.20
             976.96,110.07 1071.89,210.25 1106.69,331.96
             1106.69,331.96 1108.93,338.17 1108.93,338.17
             1108.93,338.17 1113.96,359.96 1113.96,359.96
             1113.96,359.96 1115.80,366.17 1115.80,366.17
             1115.80,366.17 1121.04,401.99 1121.04,401.99
             1121.58,407.61 1122.89,406.08 1123.00,413.00
             1123.00,413.00 1123.00,489.00 1123.00,489.00
             1122.99,497.80 1122.36,494.18 1121.26,500.09
             1121.26,500.09 1120.28,509.00 1120.28,509.00
             1120.28,509.00 1119.58,518.00 1119.58,518.00
             1119.58,518.00 1117.22,529.00 1117.22,529.00
             1117.22,529.00 1115.80,537.83 1115.80,537.83
             1115.80,537.83 1114.18,543.09 1114.18,543.09
             1114.18,543.09 1112.54,552.00 1112.54,552.00
             1112.54,552.00 1110.42,559.00 1110.42,559.00
             1110.42,559.00 1105.18,578.00 1105.18,578.00
             1064.20,704.15 966.96,805.00 840.00,845.46
             840.00,845.46 823.83,850.93 823.83,850.93
             823.83,850.93 815.00,852.70 815.00,852.70
             815.00,852.70 795.83,857.80 795.83,857.80
             795.83,857.80 785.00,859.43 785.00,859.43
             785.00,859.43 775.00,861.68 775.00,861.68
             775.00,861.68 767.00,862.28 767.00,862.28
             767.00,862.28 758.00,863.26 758.00,863.26
             751.62,864.33 754.67,864.98 746.00,865.00
             746.00,865.00 672.00,865.00 672.00,865.00
             665.37,864.89 665.97,863.74 661.00,863.12
             661.00,863.12 645.00,861.68 645.00,861.68
             645.00,861.68 636.00,859.61 636.00,859.61
             636.00,859.61 624.17,857.80 624.17,857.80
             624.17,857.80 618.91,856.18 618.91,856.18
             618.91,856.18 597.00,851.03 597.00,851.03
             579.30,845.87 561.67,839.65 544.83,832.15
             490.10,807.78 443.10,775.53 402.80,730.85
             359.95,683.33 328.84,626.31 310.97,565.00
             310.97,565.00 309.30,557.00 309.30,557.00
             309.30,557.00 303.96,536.00 303.96,536.00
             303.96,536.00 301.78,522.00 301.78,522.00
             301.78,522.00 300.26,516.00 300.26,516.00
             300.26,516.00 298.88,501.00 298.88,501.00
             298.11,494.77 297.02,497.65 297.00,488.00
             297.00,488.00 297.00,414.00 297.00,414.00
             297.00,414.00 300.26,388.00 300.26,388.00
             300.26,388.00 301.96,381.00 301.96,381.00
             301.96,381.00 303.96,368.00 303.96,368.00
             308.37,346.73 316.81,317.26 325.13,297.28
             364.24,203.44 428.68,131.35 518.96,84.08
             518.96,84.08 556.17,66.78 556.17,66.78
             556.17,66.78 589.96,55.31 589.96,55.31
             589.96,55.31 596.17,53.15 596.17,53.15
             596.17,53.15 610.00,49.51 610.00,49.51
             610.00,49.51 618.91,47.82 618.91,47.82
             618.91,47.82 624.17,46.20 624.17,46.20
             624.17,46.20 634.00,44.69 634.00,44.69
             634.00,44.69 645.00,42.29 645.00,42.29
             652.01,41.37 659.14,41.67 666.00,39.71 Z
           M 1381.00,898.21
           C 1381.00,898.21 1437.00,898.21 1437.00,898.21
             1446.36,898.01 1467.61,900.92 1476.91,902.95
             1476.91,902.95 1483.09,904.75 1483.09,904.75
             1483.09,904.75 1490.00,905.84 1490.00,905.84
             1490.00,905.84 1498.00,908.46 1498.00,908.46
             1498.00,908.46 1505.00,909.97 1505.00,909.97
             1519.35,914.15 1535.51,920.61 1549.00,927.06
             1589.18,946.26 1620.09,969.30 1650.20,1002.15
             1684.99,1040.11 1708.55,1087.65 1721.91,1137.00
             1721.91,1137.00 1723.45,1146.00 1723.45,1146.00
             1723.45,1146.00 1726.57,1160.00 1726.57,1160.00
             1726.57,1160.00 1727.26,1168.91 1727.26,1168.91
             1727.26,1168.91 1728.76,1174.17 1728.76,1174.17
             1728.76,1174.17 1730.00,1191.00 1730.00,1191.00
             1730.00,1191.00 1730.00,1241.00 1730.00,1241.00
             1730.00,1241.00 1728.76,1255.83 1728.76,1255.83
             1728.76,1255.83 1727.26,1261.09 1727.26,1261.09
             1727.26,1261.09 1725.53,1277.00 1725.53,1277.00
             1725.53,1277.00 1723.45,1284.00 1723.45,1284.00
             1723.45,1284.00 1721.91,1293.00 1721.91,1293.00
             1717.26,1310.63 1711.15,1328.24 1704.00,1345.00
             1699.29,1356.02 1692.23,1368.73 1686.00,1379.00
             1659.83,1422.12 1627.30,1455.97 1584.91,1483.40
             1557.19,1501.34 1525.83,1514.77 1494.00,1523.31
             1494.00,1523.31 1483.00,1525.44 1483.00,1525.44
             1483.00,1525.44 1463.00,1529.82 1463.00,1529.82
             1438.88,1532.99 1410.57,1532.28 1386.00,1532.00
             1363.90,1531.74 1334.05,1524.32 1313.00,1517.46
             1225.12,1488.83 1154.32,1423.09 1118.73,1337.83
             1110.22,1317.46 1104.76,1296.51 1100.18,1275.00
             1100.18,1275.00 1098.21,1267.00 1098.21,1267.00
             1095.07,1244.74 1094.97,1222.44 1095.00,1200.00
             1095.00,1200.00 1098.37,1162.00 1098.37,1162.00
             1098.37,1162.00 1102.67,1144.00 1102.67,1144.00
             1102.67,1144.00 1112.29,1109.00 1112.29,1109.00
             1136.73,1038.34 1188.99,975.49 1254.00,938.57
             1272.98,927.79 1299.26,916.16 1320.17,910.07
             1320.17,910.07 1327.96,908.31 1327.96,908.31
             1327.96,908.31 1334.17,906.15 1334.17,906.15
             1334.17,906.15 1342.00,904.78 1342.00,904.78
             1342.00,904.78 1350.00,902.63 1350.00,902.63
             1350.00,902.63 1371.00,899.29 1371.00,899.29
             1371.00,899.29 1381.00,898.21 1381.00,898.21 Z
           M 676.00,1560.14
           C 676.00,1560.14 707.00,1560.14 707.00,1560.14
             707.00,1560.14 735.00,1560.14 735.00,1560.14
             745.89,1560.02 759.53,1563.66 770.00,1566.79
             792.84,1573.62 814.56,1583.76 834.00,1597.74
             871.03,1624.38 898.65,1662.61 912.50,1706.00
             915.73,1716.11 920.98,1735.75 921.00,1746.00
             921.00,1746.00 921.00,1797.00 921.00,1797.00
             920.99,1805.26 917.19,1819.75 914.92,1828.00
             908.33,1851.94 898.00,1874.86 883.36,1895.00
             866.08,1918.77 847.84,1936.30 823.00,1952.14
             804.52,1963.92 784.01,1971.92 763.00,1977.74
             755.36,1979.86 741.70,1982.99 734.00,1983.00
             734.00,1983.00 683.00,1983.00 683.00,1983.00
             676.34,1982.92 676.03,1982.01 670.00,1980.81
             653.29,1977.47 640.78,1973.73 625.00,1967.19
             572.53,1945.43 533.73,1903.98 511.93,1852.00
             506.20,1838.34 498.02,1811.54 498.00,1797.00
             498.00,1797.00 498.00,1745.00 498.00,1745.00
             498.02,1731.33 506.09,1705.04 511.27,1692.00
             531.52,1641.06 568.72,1602.02 618.00,1578.21
             629.16,1572.81 643.98,1567.51 656.00,1564.51
             656.00,1564.51 665.00,1562.83 665.00,1562.83
             665.00,1562.83 676.00,1560.14 676.00,1560.14 Z" />
</svg>
