<?xml version="1.0" encoding="UTF-8" standalone="no"?>
<!DOCTYPE svg PUBLIC "-//W3C//DTD SVG 20010904//EN"
              "http://www.w3.org/TR/2001/REC-SVG-20010904/DTD/svg10.dtd">

<svg xmlns="http://www.w3.org/2000/svg"
     width="6.66667in" height="6.66667in"
     viewBox="0 0 2000 2000">
  <path id="Selection"
        fill="white"
        d="M 148.00,76.00
           C 148.00,76.00 1852.00,76.00 1852.00,76.00
             1852.00,76.00 1841.78,100.00 1841.78,100.00
             1841.78,100.00 1823.78,139.00 1823.78,139.00
             1823.78,139.00 1770.31,255.00 1770.31,255.00
             1770.31,255.00 1597.31,630.00 1597.31,630.00
             1597.31,630.00 1194.69,1503.00 1194.69,1503.00
             1194.69,1503.00 1063.69,1787.00 1063.69,1787.00
             1063.69,1787.00 1021.69,1878.00 1021.69,1878.00
             1021.69,1878.00 1001.00,1923.00 1001.00,1923.00
             1001.00,1923.00 999.00,1923.00 999.00,1923.00
             999.00,1923.00 978.31,1878.00 978.31,1878.00
             978.31,1878.00 936.31,1787.00 936.31,1787.00
             936.31,1787.00 805.31,1503.00 805.31,1503.00
             805.31,1503.00 402.69,630.00 402.69,630.00
             402.69,630.00 229.69,255.00 229.69,255.00
             229.69,255.00 176.22,139.00 176.22,139.00
             176.22,139.00 158.22,100.00 158.22,100.00
             158.22,100.00 148.00,76.00 148.00,76.00 Z
           M 1704.00,172.00
           C 1704.00,172.00 298.00,172.00 298.00,172.00
             298.00,172.00 317.69,215.00 317.69,215.00
             317.69,215.00 352.69,291.00 352.69,291.00
             352.69,291.00 452.69,508.00 452.69,508.00
             452.69,508.00 824.31,1315.00 824.31,1315.00
             824.31,1315.00 942.31,1571.00 942.31,1571.00
             942.31,1571.00 977.31,1647.00 977.31,1647.00
             977.31,1647.00 999.00,1694.00 999.00,1694.00
             999.00,1694.00 1001.00,1694.00 1001.00,1694.00
             1001.00,1694.00 1017.69,1658.00 1017.69,1658.00
             1017.69,1658.00 1048.69,1591.00 1048.69,1591.00
             1048.69,1591.00 1159.69,1351.00 1159.69,1351.00
             1159.69,1351.00 1494.31,627.00 1494.31,627.00
             1494.31,627.00 1636.31,320.00 1636.31,320.00
             1636.31,320.00 1679.78,226.00 1679.78,226.00
             1679.78,226.00 1696.86,189.00 1696.86,189.00
             1696.86,189.00 1704.00,172.00 1704.00,172.00 Z
           M 981.00,296.42
           C 1002.15,293.85 1038.81,297.96 1060.00,302.20
             1182.99,326.80 1279.65,426.27 1300.41,550.00
             1302.39,561.79 1304.86,579.24 1305.00,591.00
             1305.00,591.00 1305.00,613.00 1305.00,613.00
             1305.00,613.00 1303.16,636.00 1303.16,636.00
             1295.63,706.42 1263.38,774.82 1212.00,823.96
             1190.52,844.50 1166.10,861.58 1140.00,875.69
             1103.98,895.17 1060.69,906.29 1020.00,909.09
             1020.00,909.09 1008.00,910.00 1008.00,910.00
             1008.00,910.00 987.00,910.00 987.00,910.00
             987.00,910.00 977.00,909.09 977.00,909.09
             953.23,907.45 930.88,903.11 908.00,896.42
             881.39,888.64 853.06,875.01 830.00,859.67
             784.83,829.60 748.59,789.64 724.27,741.00
             681.26,654.98 681.26,551.02 724.27,465.00
             760.08,393.37 824.14,337.60 900.00,312.00
             918.67,305.70 940.44,300.72 960.00,298.28
             960.00,298.28 981.00,296.42 981.00,296.42 Z" />
</svg>
